<svg xmlns="http://www.w3.org/2000/svg" xmlns:xlink="http://www.w3.org/1999/xlink" width="500" zoomAndPan="magnify" viewBox="0 0 375 374.999991" height="500" preserveAspectRatio="xMidYMid meet" version="1.0"><defs><g/><clipPath id="ad3c545b92"><path d="M 27.332031 28.585938 L 331 28.585938 L 331 336.457031 L 27.332031 336.457031 Z M 27.332031 28.585938 " clip-rule="nonzero"/></clipPath><clipPath id="17319cd489"><path d="M 23.796875 261.074219 L 351.125 261.074219 L 351.125 268.847656 L 23.796875 268.847656 Z M 23.796875 261.074219 " clip-rule="nonzero"/></clipPath><clipPath id="d64ce7cebd"><path d="M 23.796875 193.238281 L 351.125 193.238281 L 351.125 201 L 23.796875 201 Z M 23.796875 193.238281 " clip-rule="nonzero"/></clipPath></defs><rect x="-37.5" width="450" fill="#ffffff" y="-37.499999" height="449.999989" fill-opacity="1"/><rect x="-37.5" width="450" fill="#ffffff" y="-37.499999" height="449.999989" fill-opacity="1"/><path fill="#000000" d="M 116.015625 147.609375 C 116.015625 147.609375 106.726562 147.734375 106.351562 149.171875 C 105.984375 150.601562 105.511719 151.8125 110.359375 151.15625 C 115.210938 150.507812 117.878906 148.417969 117.539062 148.082031 C 117.199219 147.734375 116.015625 147.609375 116.015625 147.609375 Z M 79.746094 152.621094 C 79.746094 152.621094 76.457031 152.675781 76.390625 153.363281 C 76.324219 154.046875 76.578125 154.816406 77.789062 154.667969 C 79.003906 154.507812 80.808594 153.523438 80.59375 153.148438 C 80.367188 152.769531 79.746094 152.621094 79.746094 152.621094 Z M 47.957031 167.511719 C 67.671875 161.085938 75.375 188.992188 61.5 198.582031 C 65.640625 198.785156 68.703125 199.359375 70.855469 197.78125 C 75.6875 194.246094 78.515625 180.988281 72.445312 172.128906 C 70.5 167.054688 63.207031 160.832031 55.164062 162.15625 C 46.839844 163.53125 42.730469 170.859375 42.730469 170.859375 C 42.730469 170.859375 42.730469 170.859375 43.484375 170.980469 C 43.980469 171.066406 44.621094 169.183594 47.957031 167.511719 Z M 178.976562 164.5 C 197.101562 163.671875 201.519531 183.414062 196.988281 197.960938 L 211.667969 197.78125 C 218.761719 171.921875 205.25 144.125 175.660156 148.296875 C 162.738281 150.121094 155.230469 160.070312 152.730469 163.464844 C 151.238281 165.492188 152.242188 165.664062 153.898438 164.066406 C 156.386719 161.648438 162.089844 156.21875 171.441406 153.464844 C 183.730469 149.835938 192.726562 153.644531 198.8125 161.40625 C 193.457031 157.835938 185.027344 156.03125 177.367188 157.789062 C 162.324219 161.226562 152.113281 175.277344 153.457031 197.300781 C 153.570312 199.097656 162.035156 197.707031 162.035156 197.707031 C 162.035156 197.707031 160.613281 194.398438 160.570312 188.796875 C 160.4375 175.070312 167.277344 165.449219 178.976562 164.5 Z M 279.089844 194.804688 C 279.089844 194.804688 302.589844 193.542969 309.429688 191.054688 C 311.558594 190.28125 313.304688 189.03125 314.695312 187.6875 C 299.601562 192.097656 241.460938 189.953125 241.460938 189.953125 C 241.460938 189.953125 237.238281 190.742188 237.046875 188.523438 C 236.871094 186.308594 242.421875 169.910156 246.953125 164.660156 C 250.082031 161.011719 264.835938 160.757812 269.101562 162.703125 C 271.589844 163.839844 274.324219 168.039062 277.679688 168.414062 C 281.035156 168.78125 305.535156 169.390625 309.074219 167.878906 C 312.617188 166.367188 313.113281 164.421875 315.164062 164.027344 C 317.214844 163.632812 324.242188 162.945312 324.792969 163.445312 C 325.152344 163.765625 325.539062 170.765625 323.5 177.296875 C 323.011719 179.054688 319.929688 189.105469 311.546875 193.410156 C 302.347656 198.140625 291.53125 198.515625 291.53125 198.515625 Z M 36.671875 172.289062 C 36.671875 172.289062 41.800781 157.28125 45.222656 154.667969 C 48.644531 152.058594 51.835938 152.460938 55.203125 149.039062 C 58.554688 145.628906 71.042969 127.972656 73.46875 126.851562 C 73.910156 126.65625 75.941406 125.867188 79.015625 124.730469 C 77.714844 128.667969 73.621094 141.210938 74.25 141.519531 C 74.886719 141.839844 79.972656 128.113281 81.832031 123.695312 C 88.746094 121.167969 98.933594 117.5625 108.519531 114.441406 C 106.265625 119.449219 101.996094 137.144531 101.996094 137.144531 C 101.996094 137.144531 101.996094 137.144531 102.15625 137.417969 C 102.25 137.59375 107.898438 120.484375 112.242188 113.25 C 122.558594 109.976562 131.53125 107.550781 133.945312 108.078125 C 138.457031 109.066406 145.621094 117.128906 151.171875 123.488281 C 150.070312 122.53125 149.085938 121.777344 148.398438 121.476562 C 145.722656 120.292969 135.65625 121.226562 133.421875 122.652344 C 131.183594 124.089844 132.734375 128.929688 132.734375 128.929688 C 132.734375 128.929688 133.421875 130.058594 135.132812 130.425781 C 136.832031 130.800781 143.425781 129.804688 146.164062 129.425781 C 147.816406 129.203125 150.191406 130.058594 151.800781 130.761719 C 128.890625 134.8125 66.882812 147.648438 66.882812 147.648438 C 66.882812 147.648438 62.53125 148.824219 63.121094 149.199219 C 63.453125 149.40625 118.582031 140.628906 168.105469 136.445312 C 182.734375 135.207031 197.101562 134.773438 209.195312 134.691406 C 209.261719 134.953125 209.335938 135.234375 209.429688 135.527344 C 210.238281 137.886719 221.738281 149.886719 228.328125 151.746094 C 234.917969 153.605469 247.039062 152 246.792969 151.4375 C 246.539062 150.871094 238.148438 151.191406 232.746094 149.253906 C 227.332031 147.328125 218.011719 138.199219 217.511719 136.511719 C 217.304688 135.816406 217.53125 135.1875 217.859375 134.691406 C 222.699219 134.710938 226.984375 134.785156 230.527344 134.867188 C 233.261719 135.394531 236.128906 136.144531 238.832031 137.199219 C 248.53125 140.996094 257.109375 149.199219 256.855469 150.128906 C 256.613281 151.0625 254.996094 151.191406 254.996094 151.191406 C 254.996094 151.191406 258.785156 152.058594 259.101562 149.132812 C 259.355469 146.71875 254.789062 139.222656 252.976562 136.617188 C 254.777344 137.050781 257.996094 137.953125 259.226562 139.125 C 260.960938 140.808594 268.359375 155.167969 272.210938 157.09375 C 276.0625 159.019531 316.402344 159.707031 317.777344 157.527344 C 319.140625 155.351562 310.9375 137.453125 310.9375 137.453125 C 310.9375 137.453125 292.480469 132.972656 268.855469 131.488281 C 267.402344 131.394531 265.90625 131.300781 264.367188 131.214844 C 264.207031 131.207031 264.054688 131.1875 263.886719 131.175781 C 255.859375 130.640625 220.941406 129.210938 200.183594 129.785156 C 190.523438 130.058594 171.289062 131.945312 164.824219 124.890625 C 163.019531 122.914062 152.421875 113.390625 144.800781 107.195312 L 177.050781 124.710938 L 236.71875 125.828125 C 236.71875 125.828125 227.144531 117.496094 216.703125 113.144531 C 202.972656 107.421875 153.203125 101.480469 136.371094 101.679688 C 135.582031 101.613281 134.660156 101.660156 133.710938 101.785156 L 133.703125 101.785156 C 130.65625 102.167969 127.359375 103.230469 127.359375 103.230469 C 127.359375 103.230469 72.972656 123 70.058594 125.738281 C 67.136719 128.46875 54.082031 147.488281 52.027344 148.109375 C 49.976562 148.730469 45.25 149.171875 43.203125 152.40625 C 41.980469 154.320312 37.894531 162.9375 36.40625 168.019531 C 35.394531 171.5 36.671875 172.289062 36.671875 172.289062 " fill-opacity="1" fill-rule="evenodd"/><path stroke-linecap="round" transform="matrix(0.0706659, 0, 0, -0.0706659, 23.797823, 337.423307)" fill="none" stroke-linejoin="round" d="M 1304.983401 2686.076079 C 1304.983401 2686.076079 1173.532942 2684.307191 1168.226279 2663.964984 C 1163.030172 2643.733332 1156.341565 2626.597234 1224.941237 2635.883894 C 1293.596187 2645.059998 1331.350882 2674.633587 1326.541718 2679.387473 C 1321.732555 2684.307191 1304.983401 2686.076079 1304.983401 2686.076079 Z M 791.729611 2615.154742 C 791.729611 2615.154742 745.185756 2614.380854 744.246034 2604.651972 C 743.306313 2594.978368 746.899366 2584.088654 764.035464 2586.189208 C 781.22684 2588.455595 806.765155 2602.385585 803.72488 2607.692248 C 800.518771 2613.054188 791.729611 2615.154742 791.729611 2615.154742 Z M 341.879385 2404.436008 C 620.866125 2495.367885 729.873823 2100.463731 533.5273 1964.756886 C 592.121701 1961.882443 635.459447 1953.756616 665.917481 1976.088822 C 734.296042 2026.115174 774.317123 2213.727814 688.41552 2339.097722 C 660.887207 2410.903503 557.683671 2498.960938 443.86681 2480.221785 C 326.069952 2460.764022 267.917772 2357.062987 267.917772 2357.062987 C 267.917772 2357.062987 267.917772 2357.062987 278.586376 2355.349377 C 285.606648 2354.133267 294.672197 2380.777136 341.879385 2404.436008 Z M 2195.94997 2447.055143 C 2452.438671 2458.774023 2514.957792 2179.400339 2450.835616 1973.546046 L 2658.569353 1976.088822 C 2758.953724 2342.027442 2567.748031 2735.383821 2149.019171 2676.347197 C 1966.160416 2650.532494 1859.916605 2509.740097 1824.538853 2461.703743 C 1803.422758 2433.014598 1817.629136 2430.582377 1841.066897 2453.190972 C 1876.278815 2487.407891 1956.984312 2564.243946 2089.319215 2603.214751 C 2263.222976 2654.567769 2390.527605 2600.671975 2476.65032 2490.835111 C 2400.864542 2541.358963 2281.575185 2566.897277 2173.175542 2542.022296 C 1960.300976 2493.377887 1815.804971 2294.543866 1834.820512 1982.887983 C 1836.423567 1957.460224 1956.210423 1977.139099 1956.210423 1977.139099 C 1956.210423 1977.139099 1936.089327 2023.959342 1935.481272 2103.227617 C 1933.601829 2297.473586 2030.393147 2433.622653 2195.94997 2447.055143 Z M 3612.663098 2018.210458 C 3612.663098 2018.210458 3945.213965 2036.065167 4042.005283 2071.277085 C 4072.13165 2082.222077 4096.840798 2099.910953 4116.519673 2118.926495 C 3902.926496 2056.517929 3080.172655 2086.865407 3080.172655 2086.865407 C 3080.172655 2086.865407 3020.417421 2075.699304 3017.708812 2107.097059 C 3015.221314 2138.439536 3093.770978 2370.495477 3157.893153 2444.788756 C 3202.170621 2496.418162 3410.954635 2500.011215 3471.317924 2472.482902 C 3506.529842 2456.397081 3545.224258 2396.973513 3592.707835 2391.66685 C 3640.191411 2386.470743 3986.893379 2377.847416 4036.975009 2399.2399 C 4087.111917 2420.632385 4094.132189 2448.160698 4123.153001 2453.743749 C 4152.173813 2459.326801 4251.618463 2469.055683 4259.412624 2461.980132 C 4264.498175 2457.447358 4269.970671 2358.389653 4241.115693 2265.965276 C 4234.205975 2241.090294 4190.591841 2098.860676 4071.965817 2037.94461 C 3941.786745 1971.00327 3788.722691 1965.696607 3788.722691 1965.696607 Z M 182.182002 2336.831335 C 182.182002 2336.831335 254.761671 2549.208402 303.184969 2586.189208 C 351.608267 2623.114736 396.770178 2617.421129 444.419587 2665.844427 C 491.847886 2714.101892 668.570812 2963.957264 702.898287 2979.821975 C 709.144671 2982.585862 737.889094 2993.751964 781.392674 3009.837786 C 762.985187 2954.117827 705.054119 2776.621013 713.953834 2772.254071 C 722.964105 2767.721297 794.935719 2961.967266 821.247922 3024.486386 C 919.089517 3060.251082 1063.253856 3111.272434 1198.905423 3155.439346 C 1167.010169 3084.573287 1106.591602 2834.165137 1106.591602 2834.165137 C 1106.591602 2834.165137 1106.591602 2834.165137 1108.857989 2830.295695 C 1110.184655 2827.808197 1190.116263 3069.924686 1251.585107 3172.299056 C 1397.573611 3218.6218 1524.546573 3252.949274 1558.708215 3245.48678 C 1622.554001 3231.501512 1723.933372 3117.408263 1802.483036 3027.416106 C 1786.894714 3040.959152 1772.964724 3051.627755 1763.235843 3055.884141 C 1725.370593 3072.633296 1582.919864 3059.421916 1551.300998 3039.245542 C 1519.626855 3018.903335 1541.572116 2950.414218 1541.572116 2950.414218 C 1541.572116 2950.414218 1551.300998 2934.438952 1575.512647 2929.242845 C 1599.558463 2923.936182 1692.867283 2938.032005 1731.616977 2943.393946 C 1754.99946 2946.544777 1788.608324 2934.438952 1811.382752 2924.48896 C 1487.178823 2867.165946 609.700022 2685.523302 609.700022 2685.523302 C 609.700022 2685.523302 548.120623 2668.884703 556.467561 2663.57804 C 561.166169 2660.64832 1341.300874 2784.857395 2042.112027 2844.059852 C 2249.127153 2861.582895 2452.438671 2867.718724 2623.578545 2868.879556 C 2624.518267 2865.175948 2625.568544 2861.195951 2626.895209 2857.05012 C 2638.337701 2823.662367 2801.075359 2653.849158 2894.328902 2627.536955 C 2987.582445 2601.224752 3159.109264 2623.943902 3155.626766 2631.903896 C 3152.033713 2639.919168 3033.297134 2635.386394 2956.848023 2662.804152 C 2880.233079 2690.056076 2748.340398 2819.240148 2741.264848 2843.12013 C 2738.335128 2852.959568 2741.541236 2861.859283 2746.184566 2868.879556 C 2814.673683 2868.603167 2875.313361 2867.55289 2925.450268 2866.392058 C 2964.144684 2858.929563 3004.718544 2848.316238 3042.970738 2833.391249 C 3180.225359 2779.661288 3301.61527 2663.57804 3298.022217 2650.421938 C 3294.594998 2637.210559 3271.710014 2635.386394 3271.710014 2635.386394 C 3271.710014 2635.386394 3325.32942 2623.114736 3329.806916 2664.517761 C 3333.399969 2698.679403 3268.780294 2804.757381 3243.131424 2841.627632 C 3268.614461 2835.491803 3314.163317 2822.722645 3331.575804 2806.139324 C 3356.119119 2782.314619 3460.815154 2579.113657 3515.319002 2551.861733 C 3569.822851 2524.609808 4140.676044 2514.880927 4160.133807 2545.725904 C 4179.425738 2576.515604 4063.34249 2829.798196 4063.34249 2829.798196 C 4063.34249 2829.798196 3802.155181 2893.20176 3467.835426 2914.207301 C 3447.272108 2915.533966 3426.100735 2916.860632 3404.321306 2918.076742 C 3402.054919 2918.187298 3399.899087 2918.463686 3397.522144 2918.62952 C 3283.926394 2926.20257 2789.798701 2946.434221 2496.052805 2938.308394 C 2359.350961 2934.438952 2087.163383 2907.739805 1995.678728 3007.571399 C 1970.140413 3035.541934 1820.171912 3170.309057 1712.325047 3257.979548 L 2168.698045 3010.114175 L 3013.065482 2994.304742 C 3013.065482 2994.304742 2877.579748 3112.212155 2729.822356 3173.791555 C 2535.52111 3254.77344 1831.227459 3338.850878 1593.03569 3336.031713 C 1581.869587 3336.971435 1568.824041 3336.308102 1555.391551 3334.539215 L 1555.280995 3334.539215 C 1512.16436 3329.121996 1465.50995 3314.086452 1465.50995 3314.086452 C 1465.50995 3314.086452 695.878014 3034.325824 654.640822 2995.57613 C 613.293075 2956.936991 428.554877 2687.789689 399.478787 2679.000529 C 370.457975 2670.211368 303.571913 2663.964984 274.606379 2618.195018 C 257.304447 2591.108926 199.483934 2469.166238 178.423116 2397.249902 C 164.106182 2347.997438 182.182002 2336.831335 182.182002 2336.831335 Z M 182.182002 2336.831335 " stroke="#000000" stroke-width="2.268" stroke-opacity="1" stroke-miterlimit="10"/><g clip-path="url(#ad3c545b92)"><path fill="#cb191d" d="M 40.355469 141.324219 C 33.175781 111.613281 27.753906 87.78125 27.953125 84.53125 C 29.492188 59.882812 60.136719 43.691406 101.746094 35.480469 C 125.039062 30.882812 152.160156 28.582031 179.324219 28.582031 C 206.480469 28.582031 233.59375 30.875 256.886719 35.480469 C 298.4375 43.683594 329.03125 59.863281 330.574219 84.53125 C 330.753906 87.417969 326.496094 106.511719 320.519531 131.535156 C 315.417969 129.972656 309.195312 128.289062 302.695312 126.640625 C 308.152344 104.160156 311.96875 87.554688 311.855469 85.628906 C 310.957031 71.214844 286.578125 60.476562 253.289062 53.90625 C 230.988281 49.5 205.136719 47.300781 179.324219 47.300781 C 153.511719 47.300781 127.652344 49.507812 105.34375 53.90625 C 71.996094 60.492188 47.574219 71.234375 46.671875 85.628906 C 46.558594 87.546875 50.316406 103.90625 55.707031 126.140625 L 53.660156 130.472656 C 52.175781 133.636719 45.457031 138.160156 41.058594 140.78125 C 40.824219 140.921875 40.589844 141.101562 40.355469 141.324219 Z M 174.371094 336.054688 L 77.828125 279.664062 C 75.3125 278.191406 73.734375 275.734375 73.292969 273.066406 C 72.945312 271.695312 72.136719 268.527344 70.96875 263.964844 L 90.222656 263.738281 L 90.644531 265.390625 L 179.261719 317.148438 L 267.878906 265.390625 L 268.847656 261.601562 L 288.222656 261.367188 C 286.242188 269.128906 285.046875 273.78125 285.03125 273.855469 C 284.382812 276.386719 282.761719 278.40625 280.679688 279.628906 L 280.695312 279.664062 L 183.992188 336.140625 C 180.914062 337.941406 177.226562 337.785156 174.371094 336.054688 " fill-opacity="1" fill-rule="nonzero"/></g><path fill="#000000" d="M 311.625 140.742188 C 311.808594 140.808594 315.445312 141.585938 317.523438 144.230469 C 319.609375 146.867188 320.6875 150.25 321.0625 150.128906 C 321.4375 150.007812 320.070312 142.640625 317.121094 140.152344 C 314.167969 137.671875 309.722656 137.171875 309.722656 137.171875 C 309.722656 137.171875 309.601562 139.785156 309.722656 140.027344 C 309.84375 140.28125 311.625 140.742188 311.625 140.742188 " fill-opacity="1" fill-rule="evenodd"/><path fill="#ffffff" d="M 288.269531 154.261719 C 288.269531 154.261719 280.800781 139.238281 281.261719 137.914062 C 281.71875 136.578125 283 137.613281 283.441406 138.113281 C 283.890625 138.621094 289.253906 154.375 288.898438 154.527344 C 288.53125 154.675781 288.269531 154.261719 288.269531 154.261719 Z M 299.09375 155.332031 C 299.09375 155.332031 291.625 140.308594 292.085938 138.976562 C 292.546875 137.652344 293.832031 138.675781 294.273438 139.183594 C 294.714844 139.679688 300.082031 155.4375 299.726562 155.589844 C 299.371094 155.738281 299.09375 155.332031 299.09375 155.332031 Z M 309.5625 154.875 C 309.5625 154.875 303.25 140.949219 303.8125 139.71875 C 304.367188 138.488281 305.578125 139.4375 305.984375 139.90625 C 306.386719 140.375 310.542969 154.976562 310.164062 155.117188 C 309.796875 155.261719 309.5625 154.875 309.5625 154.875 Z M 278.226562 153.964844 C 278.226562 153.964844 269.757812 139.410156 270.132812 138.054688 C 270.5 136.710938 271.855469 137.660156 272.335938 138.140625 C 272.8125 138.621094 279.210938 154.019531 278.863281 154.1875 C 278.515625 154.359375 278.226562 153.964844 278.226562 153.964844 " fill-opacity="1" fill-rule="evenodd"/><g clip-path="url(#17319cd489)"><path fill="#cb191d" d="M 23.796875 261.121094 L 351.183594 261.121094 C 351.183594 261.121094 332.21875 264.855469 297.21875 266.59375 C 267.304688 268.078125 206.722656 268.292969 189.753906 268.332031 L 189.746094 268.332031 C 189.746094 268.332031 188.945312 268.332031 187.492188 268.332031 C 186.03125 268.332031 185.234375 268.332031 185.234375 268.332031 L 185.226562 268.332031 C 168.253906 268.292969 107.671875 268.078125 77.761719 266.59375 C 42.761719 264.855469 23.796875 261.121094 23.796875 261.121094 " fill-opacity="1" fill-rule="evenodd"/></g><g clip-path="url(#d64ce7cebd)"><path fill="#cb191d" d="M 23.796875 200.9375 L 351.183594 200.9375 C 351.183594 200.9375 332.21875 197.207031 297.21875 195.46875 C 267.304688 193.984375 206.722656 193.769531 189.753906 193.730469 L 189.746094 193.730469 C 189.746094 193.730469 188.945312 193.730469 187.492188 193.730469 C 186.03125 193.730469 185.234375 193.730469 185.234375 193.730469 L 185.226562 193.730469 C 168.253906 193.769531 107.671875 193.984375 77.761719 195.46875 C 42.761719 197.207031 23.796875 200.9375 23.796875 200.9375 " fill-opacity="1" fill-rule="evenodd"/></g><g fill="#000000" fill-opacity="1"><g transform="translate(81.69005, 247.936614)"><g><path d="M 19.5 -39.09375 L 24.140625 -39.09375 C 24.890625 -39.09375 25.179688 -38.734375 25.015625 -38.015625 L 16.765625 -0.875 C 16.628906 -0.289062 16.269531 0 15.6875 0 L 10.796875 0 C 10.242188 0 9.882812 -0.289062 9.71875 -0.875 L 1.515625 -38.015625 C 1.347656 -38.734375 1.640625 -39.09375 2.390625 -39.09375 L 7.03125 -39.09375 C 7.625 -39.09375 7.984375 -38.796875 8.109375 -38.203125 L 13.234375 -12.015625 L 18.421875 -38.203125 C 18.585938 -38.796875 18.945312 -39.09375 19.5 -39.09375 Z M 19.5 -39.09375 "/></g></g></g><g fill="#000000" fill-opacity="1"><g transform="translate(108.21926, 247.936614)"><g><path d="M 3.21875 0 L 8.3125 0 C 8.832031 0 9.09375 -0.257812 9.09375 -0.78125 L 9.09375 -33.421875 C 9.09375 -33.941406 8.832031 -34.203125 8.3125 -34.203125 L 3.21875 -34.203125 C 2.695312 -34.203125 2.4375 -33.941406 2.4375 -33.421875 L 2.4375 -0.78125 C 2.4375 -0.257812 2.695312 0 3.21875 0 Z M 3.21875 0 "/></g></g></g><g fill="#000000" fill-opacity="1"><g transform="translate(119.749448, 247.936614)"><g><path d="M 17.9375 -34.203125 L 22.53125 -34.203125 C 23.050781 -34.203125 23.3125 -33.941406 23.3125 -33.421875 L 23.3125 -0.78125 C 23.3125 -0.257812 23.050781 0 22.53125 0 L 18.671875 0 C 18.273438 0 17.976562 -0.210938 17.78125 -0.640625 L 8.59375 -19.296875 L 8.59375 -0.78125 C 8.59375 -0.257812 8.332031 0 7.8125 0 L 3.21875 0 C 2.695312 0 2.4375 -0.257812 2.4375 -0.78125 L 2.4375 -33.421875 C 2.4375 -33.941406 2.695312 -34.203125 3.21875 -34.203125 L 7.078125 -34.203125 C 7.472656 -34.203125 7.769531 -33.988281 7.96875 -33.5625 L 17.15625 -14.90625 L 17.15625 -33.421875 C 17.15625 -33.941406 17.414062 -34.203125 17.9375 -34.203125 Z M 17.9375 -34.203125 "/></g></g></g><g fill="#000000" fill-opacity="1"><g transform="translate(145.496967, 247.936614)"><g><path d="M 21.984375 -27.171875 L 21.984375 -17.34375 C 21.984375 -14.507812 21.070312 -12.523438 19.25 -11.390625 L 21.796875 -0.875 C 21.953125 -0.289062 21.722656 0 21.109375 0 L 16.3125 0 C 15.863281 0 15.585938 -0.226562 15.484375 -0.6875 L 13.140625 -10.3125 L 8.796875 -10.3125 L 8.796875 -0.78125 C 8.796875 -0.257812 8.535156 0 8.015625 0 L 3.21875 0 C 2.695312 0 2.4375 -0.257812 2.4375 -0.78125 L 2.4375 -33.421875 C 2.4375 -33.941406 2.695312 -34.203125 3.21875 -34.203125 L 14.953125 -34.203125 C 17.265625 -34.203125 19.015625 -33.609375 20.203125 -32.421875 C 21.390625 -31.234375 21.984375 -29.484375 21.984375 -27.171875 Z M 8.796875 -16.609375 L 13.6875 -16.609375 C 14.988281 -16.609375 15.640625 -17.257812 15.640625 -18.5625 L 15.640625 -25.9375 C 15.640625 -27.25 14.988281 -27.90625 13.6875 -27.90625 L 8.796875 -27.90625 Z M 8.796875 -16.609375 "/></g></g></g><g fill="#000000" fill-opacity="1"><g transform="translate(169.925345, 247.936614)"><g><path d="M 21.9375 -33.421875 L 21.9375 -28.53125 C 21.9375 -27.976562 21.675781 -27.703125 21.15625 -27.703125 L 9.09375 -27.703125 L 9.09375 -20.171875 L 18.265625 -20.171875 C 18.796875 -20.171875 19.0625 -19.894531 19.0625 -19.34375 L 19.0625 -14.515625 C 19.0625 -13.960938 18.796875 -13.6875 18.265625 -13.6875 L 9.09375 -13.6875 L 9.09375 -6.453125 L 21.15625 -6.453125 C 21.675781 -6.453125 21.9375 -6.191406 21.9375 -5.671875 L 21.9375 -0.78125 C 21.9375 -0.257812 21.675781 0 21.15625 0 L 3.171875 0 C 2.679688 0 2.4375 -0.257812 2.4375 -0.78125 L 2.4375 -33.421875 C 2.4375 -33.941406 2.679688 -34.203125 3.171875 -34.203125 L 21.15625 -34.203125 C 21.675781 -34.203125 21.9375 -33.941406 21.9375 -33.421875 Z M 21.9375 -33.421875 "/></g></g></g><g fill="#000000" fill-opacity="1"><g transform="translate(194.304862, 247.936614)"><g><path d="M 18.71875 -34.203125 L 23.15625 -34.203125 C 23.90625 -34.203125 24.195312 -33.84375 24.03125 -33.125 L 16.265625 -0.875 C 16.140625 -0.289062 15.78125 0 15.1875 0 L 10.3125 0 C 9.757812 0 9.398438 -0.289062 9.234375 -0.875 L 1.515625 -33.125 C 1.347656 -33.84375 1.640625 -34.203125 2.390625 -34.203125 L 6.84375 -34.203125 C 7.425781 -34.203125 7.785156 -33.910156 7.921875 -33.328125 L 12.75 -11.234375 L 17.640625 -33.328125 C 17.796875 -33.910156 18.15625 -34.203125 18.71875 -34.203125 Z M 18.71875 -34.203125 "/></g></g></g><g fill="#000000" fill-opacity="1"><g transform="translate(219.856933, 247.936614)"><g><path d="M 3.21875 0 L 8.3125 0 C 8.832031 0 9.09375 -0.257812 9.09375 -0.78125 L 9.09375 -33.421875 C 9.09375 -33.941406 8.832031 -34.203125 8.3125 -34.203125 L 3.21875 -34.203125 C 2.695312 -34.203125 2.4375 -33.941406 2.4375 -33.421875 L 2.4375 -0.78125 C 2.4375 -0.257812 2.695312 0 3.21875 0 Z M 3.21875 0 "/></g></g></g><g fill="#000000" fill-opacity="1"><g transform="translate(231.387122, 247.936614)"><g><path d="M 21.9375 -33.421875 L 21.9375 -28.53125 C 21.9375 -27.976562 21.675781 -27.703125 21.15625 -27.703125 L 9.09375 -27.703125 L 9.09375 -20.171875 L 18.265625 -20.171875 C 18.796875 -20.171875 19.0625 -19.894531 19.0625 -19.34375 L 19.0625 -14.515625 C 19.0625 -13.960938 18.796875 -13.6875 18.265625 -13.6875 L 9.09375 -13.6875 L 9.09375 -6.453125 L 21.15625 -6.453125 C 21.675781 -6.453125 21.9375 -6.191406 21.9375 -5.671875 L 21.9375 -0.78125 C 21.9375 -0.257812 21.675781 0 21.15625 0 L 3.171875 0 C 2.679688 0 2.4375 -0.257812 2.4375 -0.78125 L 2.4375 -33.421875 C 2.4375 -33.941406 2.679688 -34.203125 3.171875 -34.203125 L 21.15625 -34.203125 C 21.675781 -34.203125 21.9375 -33.941406 21.9375 -33.421875 Z M 21.9375 -33.421875 "/></g></g></g><g fill="#000000" fill-opacity="1"><g transform="translate(255.766639, 247.936614)"><g><path d="M 30.09375 -34.203125 L 34.6875 -34.203125 C 35.40625 -34.203125 35.71875 -33.859375 35.625 -33.171875 L 30.921875 -0.875 C 30.828125 -0.289062 30.472656 0 29.859375 0 L 24.578125 0 C 24.023438 0 23.664062 -0.289062 23.5 -0.875 L 19 -20.90625 L 14.46875 -0.875 C 14.332031 -0.289062 13.972656 0 13.390625 0 L 8.015625 0 C 7.390625 0 7.03125 -0.304688 6.9375 -0.921875 L 2.4375 -33.171875 C 2.34375 -33.859375 2.65625 -34.203125 3.375 -34.203125 L 7.96875 -34.203125 C 8.550781 -34.203125 8.890625 -33.890625 8.984375 -33.265625 L 11.390625 -12.84375 L 11.625 -12.84375 L 16.421875 -33.375 C 16.578125 -33.925781 16.929688 -34.203125 17.484375 -34.203125 L 20.46875 -34.203125 C 21.019531 -34.203125 21.378906 -33.925781 21.546875 -33.375 L 26.328125 -12.84375 L 26.578125 -12.84375 L 29.078125 -33.265625 C 29.171875 -33.890625 29.507812 -34.203125 30.09375 -34.203125 Z M 30.09375 -34.203125 "/></g></g></g></svg>